<svg xmlns="http://www.w3.org/2000/svg" viewBox="0 0 48 48" width="48" height="48">
  <!-- WhatsApp icon - step 1: contact us -->
  <g fill="none" stroke="#01875f" stroke-width="2.5" stroke-linecap="round" stroke-linejoin="round">
    <!-- WhatsApp chat bubble shape -->
    <path d="M8 8 L38 8 C40.2 8 42 9.8 42 12 L42 36 C42 38.2 40.2 40 38 40 L16 40 L8 46 L8 8 Z"/>
    <!-- Inner bubble cut (left side) -->
    <path d="M8 8 L38 8 C40.2 8 42 9.8 42 12 L42 36 C42 38.2 40.2 40 38 40 L16 40 L8 46 L8 8 Z"/>
    <!-- WhatsApp-style "W" phone/chat curves (simplified) -->
    <path d="M16 16 C16 16 18 14 24 14 C30 14 32 16 32 16" stroke-width="3"/>
    <path d="M14 24 C14 24 17 28 24 28 C31 28 34 24 34 24"/>
    <!-- Chat dots -->
    <circle cx="18" cy="32" r="2" fill="#01875f" stroke="none"/>
    <circle cx="24" cy="32" r="2" fill="#01875f" stroke="none"/>
    <circle cx="30" cy="32" r="2" fill="#01875f" stroke="none"/>
    <!-- Tail of bubble -->
    <path d="M8 42 L14 40 L8 36" fill="#FFFFFF" stroke="#01875f" stroke-width="2.5"/>
  </g>
  <!-- Phone icon inside -->
  <path d="M18 18 C18 16.3 19.3 15 21 15 L27 15 C28.7 15 30 16.3 30 18 L30 20 C30 21.7 28.7 23 27 23 L21 23 C19.3 23 18 21.7 18 20 Z" fill="#01875f" opacity="0.15" stroke="none"/>
</svg>
