<svg xmlns="http://www.w3.org/2000/svg" viewBox="0 0 48 48" width="48" height="48">
  <!-- Cloud / CO2 prevented icon -->
  <g fill="none" stroke="#01875f" stroke-width="3" stroke-linecap="round" stroke-linejoin="round">
    <!-- Main cloud shape -->
    <path d="M38 30 C41.3 30 44 27.3 44 24 C44 20.7 41.3 18 38 18 C38 14.5 35.2 11.7 31.7 11.4 C31.1 7.8 28 5 24 5 C19.6 5 16 8.6 16 13 C12.8 13.4 10.4 16.2 10.4 19.6 C10.4 20.3 10.5 21 10.7 21.7 C7.5 22.6 5.3 25.5 5.3 29 C5.3 33 8.6 36.3 12.6 36.3 L37.3 36.3 C40.8 36.3 43.6 33.5 43.6 30 L38 30 Z"/>
    <!-- CO2 chemical formula text -->
    <text x="24" y="31" text-anchor="middle" font-family="Arial, sans-serif" font-size="9" font-weight="700" fill="#01875f" stroke="none">CO₂</text>
    <!-- Strike-through line indicating prevented -->
    <line x1="10" y1="39" x2="38" y2="39" stroke="#01875f" stroke-width="2" stroke-dasharray="3 2"/>
  </g>
</svg>
